<svg xmlns="http://www.w3.org/2000/svg" width="273.809" height="75.007" viewBox="0 0 273.809 75.007">
  <g id="logo_fg-05" data-name="logo fg-05" transform="translate(-228.913 -88.421)">
    <g id="Group_3" data-name="Group 3" transform="translate(246.366 109.059)">
      <path id="Path_57" data-name="Path 57" d="M463,380.36a.052.052,0,0,0-.052.047l-2.172,22.559q0,.036-.04.027a41.036,41.036,0,0,1-10.806-4.664.047.047,0,0,1-.025-.048q1.621-16.619,3.245-33.246a16.852,16.852,0,0,1,15.811-15.263q.5-.029,1.578-.03,13.389-.009,26.8,0a.025.025,0,0,1,.025.03,32.842,32.842,0,0,1-1.333,5.067c-.558,1.6-2.16,5.137-3.855,5.478a3.624,3.624,0,0,1-.662.045h-26.6a.035.035,0,0,0-.039.034l-.938,9.284q0,.041.037.041h14.708a.037.037,0,0,1,.042.042v10.561a.035.035,0,0,1-.039.039Z" transform="translate(-449.906 -349.736)" fill="#1d1d1d"/>
    </g>
    <g id="Group_4" data-name="Group 4" transform="translate(228.913 88.421)">
      <path id="Path_75" data-name="Path 75" d="M244.193,156.236a37.553,37.553,0,1,1,48.713-56.891.023.023,0,0,1-.016.039q-13.153,0-26.319,0A26.559,26.559,0,0,0,245.658,142.5a.085.085,0,0,1,.019.065l-1.423,13.645Q244.246,156.275,244.193,156.236Z" transform="translate(-228.913 -88.421)" fill="#bc353b"/>
      <path id="Path_76" data-name="Path 76" d="M644.337,613.409l-6.586-.006a.044.044,0,0,1-.043-.044l0-10.549a.06.06,0,0,1,.06-.059h21.206q.054,0,.049.054a37.509,37.509,0,0,1-36.877,34.328,34.508,34.508,0,0,1-7.44-.61.084.084,0,0,1-.067-.09l.965-10.853c0-.03.019-.042.048-.035a26.612,26.612,0,0,0,28.711-12.093Q644.386,613.408,644.337,613.409Z" transform="translate(-584.173 -562.131)" fill="#bc353b"/>
    </g>
    <path id="Path_77" data-name="Path 77" d="M666.508,1143.207a.089.089,0,0,0-.017-.078.09.09,0,0,0-.072-.035h-4.006a.085.085,0,0,1-.085-.085l.005-3.966a.111.111,0,0,1,.126-.125h8.991a.133.133,0,0,1,.131.111c1.1,6.893-2.993,13.046-10.222,13.457a11.529,11.529,0,1,1,8.222-18.685.167.167,0,0,1-.131.273q-4.5-.057-8.959.031A6.863,6.863,0,0,0,655.007,1145C658.05,1149.193,665.175,1148.828,666.508,1143.207Z" transform="translate(-253.634 -1028.909)" fill="#1d1d1d"/>
    <path id="Path_78" data-name="Path 78" d="M925.873,1141.952a11.642,11.642,0,1,1-11.642-11.642A11.642,11.642,0,0,1,925.873,1141.952Zm-5.473-.012a6.174,6.174,0,1,0-6.174,6.173A6.174,6.174,0,0,0,920.4,1141.94Z" transform="translate(-463.967 -1029.665)" fill="#1d1d1d"/>
    <path id="Path_79" data-name="Path 79" d="M261,1151.24l-1.14,3.842a.054.054,0,0,1-.053.039h-5.741a.055.055,0,0,1-.051-.072l7.415-22.262a.055.055,0,0,1,.051-.038H267.1a.055.055,0,0,1,.051.038l7.4,22.262a.055.055,0,0,1-.051.072h-5.7a.054.054,0,0,1-.053-.039l-1.144-3.842a.054.054,0,0,0-.053-.039h-6.489A.054.054,0,0,0,261,1151.24Zm3.332-11.038a.051.051,0,0,0-.1,0l-1.759,6.034a.051.051,0,0,0,.049.065h3.542a.051.051,0,0,0,.049-.065Z" transform="translate(74.06 -1031.689)" fill="#1d1d1d"/>
    <path id="Path_80" data-name="Path 80" d="M382.885,1155.41a7.771,7.771,0,0,1-6.218-3.281.1.1,0,0,1,.024-.146l3.8-3.016a.087.087,0,0,1,.135.014c1.875,2.214,5.241,1.241,5.315-1.73q.1-3.883.038-14.415a.092.092,0,0,1,.106-.106l5.1.01a.078.078,0,0,1,.087.089q.005,7.236,0,14.48A7.934,7.934,0,0,1,382.885,1155.41Z" transform="translate(-27.668 -1031.673)" fill="#1d1d1d"/>
    <path id="Path_81" data-name="Path 81" d="M490.671,1147.708l-1.986-.015a.13.13,0,0,0-.147.147l-.007,7.195a.075.075,0,0,1-.085.083h-5.069a.113.113,0,0,1-.128-.128v-22.157a.085.085,0,0,1,.085-.085q3.752-.007,7.542,0a20.727,20.727,0,0,1,2.591.169,7.255,7.255,0,0,1,2.627,13.661.082.082,0,0,0-.039.125l4.355,8.314c.033.064.014.1-.058.1h-5.811a.161.161,0,0,1-.155-.1l-3.586-7.232A.136.136,0,0,0,490.671,1147.708Zm-2.085-9.717-.024,4.442a.055.055,0,0,0,.055.055l3.283.017a2.447,2.447,0,0,0,2.64-2.2v-.129a2.447,2.447,0,0,0-2.616-2.224l-3.283-.017A.055.055,0,0,0,488.587,1137.991Z" transform="translate(-116.103 -1031.685)" fill="#1d1d1d"/>
    <path id="Path_82" data-name="Path 82" d="M798.484,1147.733v7.254a.075.075,0,0,1-.085.085H793.28a.08.08,0,0,1-.09-.09l.007-22.189a.071.071,0,0,1,.08-.08q3.922-.034,7.849-.016a19.056,19.056,0,0,1,2.213.14,7.283,7.283,0,0,1,2.669,13.711.068.068,0,0,0-.032.1l4.364,8.328c.032.062.013.092-.055.092H804.46a.157.157,0,0,1-.152-.094l-3.573-7.222a.171.171,0,0,0-.152-.1l-2.015-.012A.074.074,0,0,0,798.484,1147.733Zm-.01-9.7v4.272a.152.152,0,0,0,.152.152h3.136a2.474,2.474,0,0,0,2.692-2.172v-.232a2.474,2.474,0,0,0-2.692-2.172h-3.136A.152.152,0,0,0,798.474,1138.038Z" transform="translate(-373.214 -1031.64)" fill="#1d1d1d"/>
    <path id="Path_83" data-name="Path 83" d="M1060.645,1132.745a.137.137,0,0,1,.137.138q-.007,6.865,0,13.833c0,4.12,5.746,4.832,6.913,1.326a6.811,6.811,0,0,0,.194-1.926q.01-6.649,0-13.285a.09.09,0,0,1,.09-.09h5.151a.08.08,0,0,1,.09.09q-.012,6.285.005,12.566a17.848,17.848,0,0,1-.223,3.394c-1.883,8.887-15.156,9.16-17.253.365a16.508,16.508,0,0,1-.253-3.388q-.012-6.465-.005-12.936a.081.081,0,0,1,.092-.092Z" transform="translate(-590.809 -1031.681)" fill="#1d1d1d"/>
    <path id="Path_84" data-name="Path 84" d="M1192.084,1147.06c-2,.748-4.572.4-6.44.474a.1.1,0,0,0-.111.116v7.251a.075.075,0,0,1-.085.085h-5.113a.075.075,0,0,1-.085-.085v-22.155a.08.08,0,0,1,.089-.09q7.033-.155,9.792.039a7.294,7.294,0,0,1,3.218,1.006A7.4,7.4,0,0,1,1192.084,1147.06Zm-6.547-9.164.017,4.408a.078.078,0,0,0,.078.078l3.257-.012a2.477,2.477,0,0,0,2.649-2.253v-.075a2.477,2.477,0,0,0-2.666-2.236l-3.257.012A.079.079,0,0,0,1185.537,1137.9Z" transform="translate(-694.3 -1031.553)" fill="#1d1d1d"/>
    <path id="Path_85" data-name="Path 85" d="M170.812,1141.427l5.454.06a.127.127,0,0,1,.126.126l.007,4.249a.078.078,0,0,1-.089.089l-6.443,0a.138.138,0,0,0-.138.124l-.888,9.112a.1.1,0,0,1-.107.1h-4.56c-.058,0-.084-.028-.078-.085q.651-7.569,1.428-15.115a10.4,10.4,0,0,1,.5-2.53,7.207,7.207,0,0,1,5.023-4.375,11.068,11.068,0,0,1,2.287-.176q5.441-.012,10.882,0,.078,0,.066.077c-.181,1.147-1.006,4.391-2.451,4.391q-5.141,0-10.278.06a.3.3,0,0,1-.143-.032.265.265,0,0,0-.232-.017.14.14,0,0,0-.087.121l-.377,3.728a.093.093,0,0,0,.023.072A.1.1,0,0,0,170.812,1141.427Z" transform="translate(148.651 -1031.89)" fill="#1d1d1d"/>
    <ellipse id="Ellipse_1" data-name="Ellipse 1" cx="1.211" cy="1.211" rx="1.211" ry="1.211" transform="translate(431.708 133.485)" fill="#1d1d1d"/>
    <rect id="Rectangle_2" data-name="Rectangle 2" width="2.623" height="12.866" rx="0.4" transform="translate(327.501 134.56)" fill="#1d1d1d"/>
    <path id="Path_86" data-name="Path 86" d="M204.274,1340.443l-1.564-2.315a.2.2,0,0,1-.034-.111v-3.071a.064.064,0,0,1,.072-.073q3.2-.009,6.4,0c1.526,0,3.207.56,3.207,2.391a5,5,0,0,1-1.613,3.176.052.052,0,0,0-.01.055.047.047,0,0,0,.045.029q1.2,0,2.423,0c.741,0,1.189-.22,1.19-1.01q.009-4.594.006-9.19a.067.067,0,0,1,.075-.077h2.472a.065.065,0,0,1,.074.074q.01,4.709,0,9.415a3.417,3.417,0,0,1-3.44,3.378q-6.4.047-12.8.025a.073.073,0,0,0-.083.081c-.03,3.126-2.5,4.334-5.283,3.633a.078.078,0,0,1-.064-.111l.67-2.311a.073.073,0,0,1,.1-.057,1.4,1.4,0,0,0,1.946-1.458c.1-2.636.033-5.328.033-7.97a.07.07,0,0,1,.08-.079h2.438a.066.066,0,0,1,.074.074v5.507a.074.074,0,0,0,.074.074h3.476C204.3,1340.525,204.311,1340.5,204.274,1340.443Zm3.126.008a.237.237,0,0,0,.371.034c.421-.444,1.545-1.563,1.588-2.153a.65.65,0,0,0-.624-.8,23.463,23.463,0,0,0-2.822-.018.049.049,0,0,0-.053.053l-.019.449a.079.079,0,0,0,.013.049Z" transform="translate(134.582 -1195.69)" fill="#1d1d1d"/>
    <rect id="Rectangle_3" data-name="Rectangle 3" width="2.587" height="12.89" rx="0.26" transform="translate(353.78 134.56)" fill="#1d1d1d"/>
    <path id="Path_87" data-name="Path 87" d="M718.52,1334.878c2.608-.148,5,.932,5.746,3.562a19.46,19.46,0,0,1,.206,4.619.076.076,0,0,1-.084.086q-6.89.021-10.225,0c-2.543-.015-3.65-1.675-3.655-4.063q-.009-4.38-.007-8.759a.067.067,0,0,1,.075-.076h2.474a.067.067,0,0,1,.075.076q0,4.672,0,9.339c0,.654.56.861,1.156.861h7.52a.08.08,0,0,0,.078-.094,2.455,2.455,0,0,1-.038-.482,2.292,2.292,0,0,0-1.4-2.234,6.277,6.277,0,0,0-2.029-.219q-1.606,0-3.217,0a.064.064,0,0,1-.072-.071l-.01-2.485a.171.171,0,0,1,.055-.125l5-4.512a.2.2,0,0,1,.135-.052h3.241c.084,0,.094.028.031.084l-5.079,4.473a.039.039,0,0,0-.011.045A.042.042,0,0,0,718.52,1334.878Z" transform="translate(-304.417 -1195.69)" fill="#1d1d1d"/>
    <ellipse id="Ellipse_2" data-name="Ellipse 2" cx="1.369" cy="1.369" rx="1.369" ry="1.369" transform="translate(318.609 135.508)" fill="#1d1d1d"/>
    <ellipse id="Ellipse_3" data-name="Ellipse 3" cx="1.369" cy="1.369" rx="1.369" ry="1.369" transform="translate(322.18 135.507)" fill="#1d1d1d"/>
    <ellipse id="Ellipse_4" data-name="Ellipse 4" cx="1.436" cy="1.436" rx="1.436" ry="1.436" transform="translate(381.235 135.628)" fill="#1d1d1d"/>
    <ellipse id="Ellipse_5" data-name="Ellipse 5" cx="1.368" cy="1.368" rx="1.368" ry="1.368" transform="translate(395.367 135.799)" fill="#1d1d1d"/>
    <ellipse id="Ellipse_6" data-name="Ellipse 6" cx="1.366" cy="1.366" rx="1.366" ry="1.366" transform="translate(398.692 135.802)" fill="#1d1d1d"/>
    <ellipse id="Ellipse_7" data-name="Ellipse 7" cx="1.371" cy="1.371" rx="1.371" ry="1.371" transform="translate(446.138 135.799)" fill="#1d1d1d"/>
    <ellipse id="Ellipse_8" data-name="Ellipse 8" cx="1.368" cy="1.368" rx="1.368" ry="1.368" transform="translate(449.337 135.799)" fill="#1d1d1d"/>
    <ellipse id="Ellipse_9" data-name="Ellipse 9" cx="1.335" cy="1.335" rx="1.335" ry="1.335" transform="translate(429.952 135.866)" fill="#1d1d1d"/>
    <ellipse id="Ellipse_10" data-name="Ellipse 10" cx="1.338" cy="1.338" rx="1.338" ry="1.338" transform="translate(433.209 135.864)" fill="#1d1d1d"/>
    <path id="Path_88" data-name="Path 88" d="M89.575,1369.708a12.526,12.526,0,0,1-2.3-.093,4.142,4.142,0,0,1-3.155-5c.988-3.983,6.689-4.31,7.925-.328a19.328,19.328,0,0,1,.234,4.864,6.308,6.308,0,0,1-.226,1.958c-.955,2.669-4.013,2.547-6.318,2.438-4.1-.193-6.483-2.344-6.5-6.56q-.006-1.479-.009-2.961a.073.073,0,0,1,.083-.083h2.434a.065.065,0,0,1,.074.074c.01,2.682-.631,6.366,3.173,6.844a13.364,13.364,0,0,0,3.775,0,.981.981,0,0,0,.887-1.075A.063.063,0,0,0,89.575,1369.708Zm-1.122-5.611c-2.113-.42-2.49,2.926-.355,2.972q.73.016,1.473.009a.068.068,0,0,0,.077-.077C89.649,1365.911,89.873,1364.381,88.453,1364.1Z" transform="translate(233.527 -1222.281)" fill="#1d1d1d"/>
    <path id="Path_89" data-name="Path 89" d="M419.317,1367.015h2.408a.062.062,0,0,0,.059-.039.066.066,0,0,0-.013-.071,2.515,2.515,0,0,1-.676-1.385c-.472-3.016,2.719-4.954,5.383-3.89a4.175,4.175,0,0,1,2.559,3.98q.01,1.955,0,3.911a.064.064,0,0,1-.073.073l-20.7.055a.08.08,0,0,0-.09.086q-.025.4-.084.821c-.371,2.639-2.958,3.359-5.221,2.772a.067.067,0,0,1-.055-.095l.673-2.3a.085.085,0,0,1,.1-.059c1.493.346,1.958-.534,1.969-1.822q.031-3.812.012-7.613a.07.07,0,0,1,.078-.08h2.439a.065.065,0,0,1,.074.074v5.507a.074.074,0,0,0,.074.074h8.312a.058.058,0,0,0,.065-.059c.205-2.385-1.246-2.98-3.214-2.971q-1.513.009-3.018,0a.067.067,0,0,1-.075-.075v-2.464a.07.07,0,0,1,.08-.08q1.057,0,3.69.007a5.009,5.009,0,0,1,5.163,5.558A.073.073,0,0,0,419.317,1367.015Zm4.6-.418c.58.531,1.468.4,2.426.373a.067.067,0,0,0,.074-.074,6.617,6.617,0,0,0-.114-1.971C425.443,1362.637,422.059,1364.894,423.917,1366.6Z" transform="translate(-42.217 -1222.179)" fill="#1d1d1d"/>
    <path id="Path_90" data-name="Path 90" d="M623.07,1369.732a4.711,4.711,0,0,1-4.505-3.454,12.578,12.578,0,0,1-.152-3.038.068.068,0,0,1,.077-.077h2.434a.064.064,0,0,1,.073.073c.027,1.9-.219,3.81,2.336,3.889q1.343.04,2.7.04a1.346,1.346,0,0,0,1.517-1.526q0-2.034,0-4.06a.079.079,0,0,1,.078-.078h2.437a.07.07,0,0,1,.08.08q-.013,1.585,0,3.164a9.077,9.077,0,0,1-.2,2.357C629,1370.273,625.632,1369.8,623.07,1369.732Z" transform="translate(-225.932 -1222.319)" fill="#1d1d1d"/>
    <path id="Path_91" data-name="Path 91" d="M814.611,1368.808a3.088,3.088,0,0,1-4.416.058.066.066,0,0,0-.108,0c-.943,1.034-2.243.958-3.587.892a.064.064,0,0,0-.077.074c.04,3.123-2.531,4.356-5.283,3.646a.075.075,0,0,1-.061-.1l.665-2.3a.081.081,0,0,1,.111-.063c1.625.424,1.975-.738,1.977-2.024q0-3.7,0-7.408a.067.067,0,0,1,.075-.076h2.438a.065.065,0,0,1,.074.074v5.507a.075.075,0,0,0,.075.075c.816-.006,2.321.316,2.324-1q0-2.288,0-4.582a.066.066,0,0,1,.075-.074h2.472a.074.074,0,0,1,.074.074q.009,2.12,0,4.225a1.786,1.786,0,0,0,.194.946.942.942,0,0,0,1.69-.441q.065-2.3.025-4.755a.05.05,0,0,1,.05-.05h2.476a.083.083,0,0,1,.083.084q-.044,3.331.027,4.682a.948.948,0,1,0,1.882-.216q.072-2.233.031-4.466a.072.072,0,0,1,.081-.084h2.438a.064.064,0,0,1,.073.073q.01,2.238.009,4.472a3.565,3.565,0,0,1-4,3.689,2.83,2.83,0,0,1-1.8-.929A.062.062,0,0,0,814.611,1368.808Z" transform="translate(-381.602 -1222.319)" fill="#1d1d1d"/>
    <path id="Path_92" data-name="Path 92" d="M982.2,1367.056a3.473,3.473,0,0,1,.88-4.873,4.444,4.444,0,0,1,5.349.449.083.083,0,0,1,.016.121l-1.288,1.888a.09.09,0,0,1-.13.031q-.21-.117-.407-.241c-2.5-1.579-3.918,2.726-.634,2.714q1.468-.006,2.936,0a.066.066,0,0,1,.074.074v2.472a.065.065,0,0,1-.072.074q-3.717.012-7.429,0c-1.6-.006-2.5.073-3.426-1.048a.066.066,0,0,0-.109-.008,3.556,3.556,0,0,1-3.009,1.023,4.122,4.122,0,0,1-2.876-6.567c1.051-1.445,2.369-1.669,4.229-1.675q1.542,0,3.052,0a.091.091,0,0,1,.092.094q-.059,2.23,0,4.469c.018.717.269,1.082,1,1.09q.856.007,1.711,0Q982.264,1367.14,982.2,1367.056Zm-7.709-.225a1.425,1.425,0,0,0,2.178-.547,6.5,6.5,0,0,0,.128-2.094.068.068,0,0,0-.077-.077,6.376,6.376,0,0,0-1.881.108A1.514,1.514,0,0,0,974.493,1366.832Z" transform="translate(-526.623 -1222.309)" fill="#1d1d1d"/>
    <path id="Path_93" data-name="Path 93" d="M1108.08,1369.712a4.119,4.119,0,0,1-5.5,3.63,4.3,4.3,0,0,1-2.212-1.4.085.085,0,0,1,.007-.132l1.687-1.594a.081.081,0,0,1,.127,0c.975.959,2.659,1.057,3.285-.385a.125.125,0,0,0-.011-.117.121.121,0,0,0-.1-.053,16.945,16.945,0,0,1-1.736-.043,4.134,4.134,0,0,1-3.179-6.317,4.235,4.235,0,0,1,4.947-1.7c2.458.917,2.731,3.047,2.7,5.357a.068.068,0,0,0,.077.078h2q.122,0,.049-.1a2.183,2.183,0,0,1-.423-.788,4.107,4.107,0,0,1,6.24-4.126,4.2,4.2,0,0,1,1.965,4.13c-.03.662.316.881.948.882q3.642,0,7.283,0a.068.068,0,0,0,.077-.069c.217-2.236-1.121-2.963-3.034-2.959q-1.589,0-3.17-.01a.061.061,0,0,1-.068-.069v-2.469a.063.063,0,0,1,.071-.071q1.833-.014,3.661-.013a5.021,5.021,0,0,1,5.169,5.568.087.087,0,0,0,.087.094h2.066c.082,0,.1-.033.05-.1a2.2,2.2,0,0,1-.447-1.008,4.111,4.111,0,0,1,4.3-4.527c4.53.247,5.425,6.683,1.091,8.034a9.984,9.984,0,0,1-2.575.223q-6.851.006-13.7,0c-1.489,0-2.36.077-3.167-1.06a.067.067,0,0,0-.115-.012,3.541,3.541,0,0,1-2.119,1.03q-1.476.135-6.236.012A.085.085,0,0,0,1108.08,1369.712Zm-5.624-4.4c-.186,1.815,1.7,1.778,2.941,1.718a.068.068,0,0,0,.072-.074,4.391,4.391,0,0,0-.271-2.286A1.51,1.51,0,0,0,1102.455,1365.309Zm12.892.21a1.5,1.5,0,1,0-1.5,1.5A1.5,1.5,0,0,0,1115.348,1365.519Zm20.939,0a1.5,1.5,0,1,0-1.5,1.5A1.5,1.5,0,0,0,1136.286,1365.519Z" transform="translate(-636.187 -1222.203)" fill="#1d1d1d"/>
    <ellipse id="Ellipse_11" data-name="Ellipse 11" cx="1.428" cy="1.428" rx="1.428" ry="1.428" transform="translate(371.06 148.491)" fill="#1d1d1d"/>
    <ellipse id="Ellipse_12" data-name="Ellipse 12" cx="1.428" cy="1.428" rx="1.428" ry="1.428" transform="translate(486.8 148.492)" fill="#1d1d1d"/>
  </g>
</svg>
